<svg xmlns="http://www.w3.org/2000/svg" xmlns:svg="http://www.w3.org/2000/svg" width="40px" height="44px" viewBox="0 0 40 44" version="1.1" id="svg542">
    <g id="layer1" transform="matrix(0.81,0,0,0.81268115,-36.841842,-51.387645)" shape-rendering="geometricPrecision">
        <g id="Layer1006" transform="matrix(0.83740431,0,0,0.83740431,-532.37161,-142.49037)" style="image-rendering:auto">
            <g id="Layer1007">
                <path d="m 745.9304,309.3809 c -18.6251,0 -37.25,0 -55.875,0 0,-10.7253 0,-21.4507 0,-32.176 l 25.7874,19.2439 -11.9036,0.0122 -6.755,-5.041 v 10.8321 h 37.7615 l -44.8903,-33.3027 v -4.0387 l 9.5719,-6.5934 v -8.9207 l 6.2164,4.6389 c 1.016,-0.6999 12.1489,-8.3686 12.1491,-8.3685 l 27.9376,19.2435 z m -46.2763,-42.1871 39.1475,29.0424 v -27.3409 l -20.809,-14.3332 -5.9311,4.0855 20.9483,15.5413 v 8.8443 l -27.1503,-20.1136 z" style="fill:#fff;fill-rule:evenodd" id="#path322"/>
            </g>
        </g>
    </g>
</svg>